<?xml version="1.0" standalone="no"?>
<!DOCTYPE svg PUBLIC "-//W3C//DTD SVG 20010904//EN"
 "http://www.w3.org/TR/2001/REC-SVG-20010904/DTD/svg10.dtd">
<svg version="1.0" xmlns="http://www.w3.org/2000/svg"
 width="512.000000pt" height="512.000000pt" viewBox="0 0 512.000000 512.000000"
 preserveAspectRatio="xMidYMid meet">

<g transform="translate(0.000000,512.000000) scale(0.100000,-0.100000)"
fill="#000000" stroke="none">
<path d="M868 5105 c-371 -62 -700 -346 -816 -705 -53 -163 -52 -118 -52
-1840 0 -1722 -1 -1677 52 -1840 118 -362 446 -644 823 -705 135 -22 3235 -22
3370 0 437 71 789 423 860 860 23 138 22 3240 0 3371 -76 442 -423 788 -860
859 -125 21 -3255 20 -3377 0z m3356 -471 c33 -9 88 -30 121 -47 78 -41 201
-164 242 -242 67 -128 63 -15 63 -1785 0 -1770 4 -1657 -63 -1785 -41 -78
-164 -201 -242 -242 -128 -67 -15 -63 -1785 -63 -1770 0 -1657 -4 -1785 63
-78 41 -201 164 -242 242 -67 128 -63 15 -63 1785 0 1770 -4 1657 63 1785 40
75 163 200 237 240 128 68 2 63 1784 64 1436 1 1615 -1 1670 -15z"/>
</g>
</svg>
