<?xml version="1.0" encoding="UTF-8"?>
<svg xmlns="http://www.w3.org/2000/svg" xmlns:xlink="http://www.w3.org/1999/xlink" width="20px" height="px" viewBox="0 0 20 20" version="1.1">
<g id="surface1">
<path style=" stroke:none;fill-rule:nonzero;fill:rgb(0%,0%,0%);fill-opacity:1;" d="M 3.390625 0.0585938 C 1.941406 0.300781 0.65625 1.410156 0.203125 2.8125 C -0.00390625 3.449219 0 3.273438 0 10 C 0 16.726562 -0.00390625 16.550781 0.203125 17.1875 C 0.664062 18.601562 1.945312 19.703125 3.417969 19.941406 C 3.945312 20.027344 16.054688 20.027344 16.582031 19.941406 C 18.289062 19.664062 19.664062 18.289062 19.941406 16.582031 C 20.03125 16.042969 20.027344 3.925781 19.941406 3.414062 C 19.644531 1.6875 18.289062 0.335938 16.582031 0.0585938 C 16.09375 -0.0234375 3.867188 -0.0195312 3.390625 0.0585938 Z M 16.5 1.898438 C 16.628906 1.933594 16.84375 2.015625 16.972656 2.082031 C 17.277344 2.242188 17.757812 2.722656 17.917969 3.027344 C 18.179688 3.527344 18.164062 3.085938 18.164062 10 C 18.164062 16.914062 18.179688 16.472656 17.917969 16.972656 C 17.757812 17.277344 17.277344 17.757812 16.972656 17.917969 C 16.472656 18.179688 16.914062 18.164062 10 18.164062 C 3.085938 18.164062 3.527344 18.179688 3.027344 17.917969 C 2.722656 17.757812 2.242188 17.277344 2.082031 16.972656 C 1.820312 16.472656 1.835938 16.914062 1.835938 10 C 1.835938 3.085938 1.820312 3.527344 2.082031 3.027344 C 2.238281 2.734375 2.71875 2.246094 3.007812 2.089844 C 3.507812 1.824219 3.015625 1.84375 9.976562 1.839844 C 15.585938 1.835938 16.285156 1.84375 16.5 1.898438 Z M 16.5 1.898438 "/>
</g>
</svg>
