<?xml version="1.0" encoding="UTF-8"?>
<svg xmlns="http://www.w3.org/2000/svg" xmlns:xlink="http://www.w3.org/1999/xlink" width="20px" height="px" viewBox="0 0 20 22" version="1.1">
<g id="surface1">
<path style=" stroke:none;fill-rule:nonzero;fill:rgb(0%,0%,0%);fill-opacity:1;" d="M 2.855469 1.375 C 1.28125 1.375 0 2.609375 0 4.125 L 0 17.875 C 0 19.390625 1.28125 20.625 2.855469 20.625 L 17.144531 20.625 C 18.71875 20.625 20 19.390625 20 17.875 L 20 4.125 C 20 2.609375 18.71875 1.375 17.144531 1.375 Z M 15.042969 8.980469 L 9.332031 14.480469 C 8.910156 14.882812 8.230469 14.882812 7.816406 14.480469 L 4.960938 11.730469 C 4.539062 11.328125 4.539062 10.671875 4.960938 10.273438 C 5.378906 9.875 6.058594 9.871094 6.472656 10.273438 L 8.570312 12.292969 L 13.527344 7.519531 C 13.945312 7.117188 14.625 7.117188 15.039062 7.519531 C 15.457031 7.921875 15.460938 8.578125 15.039062 8.976562 Z M 15.042969 8.980469 "/>
</g>
</svg>
